<?xml version="1.0" standalone="no"?><!DOCTYPE svg PUBLIC "-//W3C//DTD SVG 1.1//EN" "http://www.w3.org/Graphics/SVG/1.1/DTD/svg11.dtd"><svg t="1612438935065" class="icon" viewBox="0 0 1024 1024" version="1.1" xmlns="http://www.w3.org/2000/svg" p-id="21836" xmlns:xlink="http://www.w3.org/1999/xlink" width="200" height="200"><defs><style type="text/css"></style></defs><path d="M511.88872 511.88872m-489.632689 0a489.632689 489.632689 0 1 0 979.265377 0 489.632689 489.632689 0 1 0-979.265377 0Z" fill="#FFC764" p-id="21837"></path><path d="M511.88872 1023.77744a511.88872 511.88872 0 1 1 511.88872-511.88872 511.88872 511.88872 0 0 1-511.88872 511.88872z m0-979.265377a467.376657 467.376657 0 1 0 467.376657 467.376657A467.376657 467.376657 0 0 0 511.88872 44.512063z" fill="#1E1E1E" p-id="21838"></path><path d="M499.870463 821.470115a353.870898 353.870898 0 0 1-260.840687-114.841121 28.71028 28.71028 0 1 1 44.512063-36.722452 302.682026 302.682026 0 0 0 216.996305 93.920452h3.338405A381.690937 381.690937 0 0 0 742.683764 667.680939a28.71028 28.71028 0 0 1 40.283417 41.173658 434.215171 434.215171 0 0 1-278.868072 111.280156zM456.916323 474.276027a22.256031 22.256031 0 0 1-22.256032-22.256031 112.615518 112.615518 0 1 0-225.008476 0 22.256031 22.256031 0 0 1-44.512063 0 157.127581 157.127581 0 1 1 314.255162 0 22.256031 22.256031 0 0 1-22.478591 22.256031zM849.957835 474.276027a22.256031 22.256031 0 0 1-22.256031-22.256031 112.615518 112.615518 0 1 0-225.008476 0 22.256031 22.256031 0 0 1-44.512063 0 157.350141 157.350141 0 1 1 314.477722 0 22.256031 22.256031 0 0 1-22.701152 22.256031z" fill="#1E1E1E" p-id="21839"></path><path d="M789.866551 250.825473a22.256031 22.256031 0 0 1-18.472506-9.570094C689.93697 122.408172 502.541187 120.62769 500.538144 120.62769a22.256031 22.256031 0 0 1 0-44.512063c8.679852 0 212.322539 1.557922 307.578352 139.767877a22.256031 22.256031 0 0 1-18.249945 34.941969z" fill="#FFFFFF" p-id="21840"></path><path d="M563.967833 893.357096A467.376657 467.376657 0 0 1 137.542273 230.572484a467.376657 467.376657 0 1 0 801.217127 475.166268 467.376657 467.376657 0 0 1-374.791567 187.618344z" fill="#D9AC5D" p-id="21841"></path></svg>